ISO-10303-21;
HEADER;
/* Generated by software containing ST-Developer
 * from STEP Tools, Inc. (www.steptools.com) 
 */

FILE_DESCRIPTION(
/* description */ (''),
/* implementation_level */ '2;1');

FILE_NAME(
/* name */ 'YouTube Controller back.step',
/* time_stamp */ '2026-08-30T22:40:21-07:00',
/* author */ (''),
/* organization */ (''),
/* preprocessor_version */ 'ST-DEVELOPER v20.1',
/* originating_system */ 'Autodesk Translation Framework v15.8.0.0',
/* authorisation */ '');

FILE_SCHEMA (('AUTOMOTIVE_DESIGN { 1 0 10303 214 3 1 1 }'));
ENDSEC;

DATA;
#10=MECHANICAL_DESIGN_GEOMETRIC_PRESENTATION_REPRESENTATION('',(#13),#491);
#11=SHAPE_REPRESENTATION_RELATIONSHIP('SRR','None',#498,#12);
#12=ADVANCED_BREP_SHAPE_REPRESENTATION('',(#14),#490);
#13=STYLED_ITEM('',(#518),#14);
#14=MANIFOLD_SOLID_BREP('Color',#279);
#15=FACE_BOUND('',#47,.T.);
#16=FACE_BOUND('',#50,.T.);
#17=FACE_BOUND('',#62,.T.);
#18=FACE_BOUND('',#63,.T.);
#19=FACE_BOUND('',#65,.T.);
#20=FACE_BOUND('',#66,.T.);
#21=PLANE('',#296);
#22=PLANE('',#301);
#23=PLANE('',#310);
#24=PLANE('',#314);
#25=PLANE('',#318);
#26=PLANE('',#322);
#27=PLANE('',#323);
#28=PLANE('',#324);
#29=FACE_OUTER_BOUND('',#45,.T.);
#30=FACE_OUTER_BOUND('',#46,.T.);
#31=FACE_OUTER_BOUND('',#48,.T.);
#32=FACE_OUTER_BOUND('',#49,.T.);
#33=FACE_OUTER_BOUND('',#51,.T.);
#34=FACE_OUTER_BOUND('',#52,.T.);
#35=FACE_OUTER_BOUND('',#53,.T.);
#36=FACE_OUTER_BOUND('',#54,.T.);
#37=FACE_OUTER_BOUND('',#55,.T.);
#38=FACE_OUTER_BOUND('',#56,.T.);
#39=FACE_OUTER_BOUND('',#57,.T.);
#40=FACE_OUTER_BOUND('',#58,.T.);
#41=FACE_OUTER_BOUND('',#59,.T.);
#42=FACE_OUTER_BOUND('',#60,.T.);
#43=FACE_OUTER_BOUND('',#61,.T.);
#44=FACE_OUTER_BOUND('',#64,.T.);
#45=EDGE_LOOP('',(#183,#184,#185,#186));
#46=EDGE_LOOP('',(#187));
#47=EDGE_LOOP('',(#188));
#48=EDGE_LOOP('',(#189,#190,#191,#192));
#49=EDGE_LOOP('',(#193));
#50=EDGE_LOOP('',(#194));
#51=EDGE_LOOP('',(#195,#196,#197,#198));
#52=EDGE_LOOP('',(#199,#200,#201,#202));
#53=EDGE_LOOP('',(#203,#204,#205,#206));
#54=EDGE_LOOP('',(#207,#208,#209,#210));
#55=EDGE_LOOP('',(#211,#212,#213,#214));
#56=EDGE_LOOP('',(#215,#216,#217,#218));
#57=EDGE_LOOP('',(#219,#220,#221,#222));
#58=EDGE_LOOP('',(#223,#224,#225,#226));
#59=EDGE_LOOP('',(#227,#228,#229,#230));
#60=EDGE_LOOP('',(#231,#232,#233,#234));
#61=EDGE_LOOP('',(#235,#236,#237,#238,#239,#240,#241,#242));
#62=EDGE_LOOP('',(#243));
#63=EDGE_LOOP('',(#244));
#64=EDGE_LOOP('',(#245,#246,#247,#248,#249,#250,#251,#252));
#65=EDGE_LOOP('',(#253));
#66=EDGE_LOOP('',(#254));
#67=LINE('',#416,#87);
#68=LINE('',#425,#88);
#69=LINE('',#432,#89);
#70=LINE('',#436,#90);
#71=LINE('',#443,#91);
#72=LINE('',#446,#92);
#73=LINE('',#449,#93);
#74=LINE('',#451,#94);
#75=LINE('',#452,#95);
#76=LINE('',#458,#96);
#77=LINE('',#461,#97);
#78=LINE('',#463,#98);
#79=LINE('',#464,#99);
#80=LINE('',#470,#100);
#81=LINE('',#473,#101);
#82=LINE('',#475,#102);
#83=LINE('',#476,#103);
#84=LINE('',#482,#104);
#85=LINE('',#484,#105);
#86=LINE('',#485,#106);
#87=VECTOR('',#331,3.);
#88=VECTOR('',#342,3.);
#89=VECTOR('',#351,1.35);
#90=VECTOR('',#356,1.35);
#91=VECTOR('',#363,10.);
#92=VECTOR('',#366,10.);
#93=VECTOR('',#369,10.);
#94=VECTOR('',#370,10.);
#95=VECTOR('',#371,10.);
#96=VECTOR('',#378,10.);
#97=VECTOR('',#381,10.);
#98=VECTOR('',#382,10.);
#99=VECTOR('',#383,10.);
#100=VECTOR('',#390,10.);
#101=VECTOR('',#393,10.);
#102=VECTOR('',#394,10.);
#103=VECTOR('',#395,10.);
#104=VECTOR('',#402,10.);
#105=VECTOR('',#405,10.);
#106=VECTOR('',#406,10.);
#107=CIRCLE('',#294,3.);
#108=CIRCLE('',#295,3.);
#109=CIRCLE('',#297,1.35);
#110=CIRCLE('',#299,3.);
#111=CIRCLE('',#300,3.);
#112=CIRCLE('',#302,1.35);
#113=CIRCLE('',#304,1.35);
#114=CIRCLE('',#306,1.35);
#115=CIRCLE('',#308,3.475);
#116=CIRCLE('',#309,3.475);
#117=CIRCLE('',#312,3.47500000000001);
#118=CIRCLE('',#313,3.47500000000001);
#119=CIRCLE('',#316,3.475);
#120=CIRCLE('',#317,3.475);
#121=CIRCLE('',#320,3.47500000000001);
#122=CIRCLE('',#321,3.47500000000001);
#123=VERTEX_POINT('',#413);
#124=VERTEX_POINT('',#415);
#125=VERTEX_POINT('',#419);
#126=VERTEX_POINT('',#422);
#127=VERTEX_POINT('',#424);
#128=VERTEX_POINT('',#428);
#129=VERTEX_POINT('',#431);
#130=VERTEX_POINT('',#435);
#131=VERTEX_POINT('',#439);
#132=VERTEX_POINT('',#440);
#133=VERTEX_POINT('',#442);
#134=VERTEX_POINT('',#444);
#135=VERTEX_POINT('',#448);
#136=VERTEX_POINT('',#450);
#137=VERTEX_POINT('',#454);
#138=VERTEX_POINT('',#456);
#139=VERTEX_POINT('',#460);
#140=VERTEX_POINT('',#462);
#141=VERTEX_POINT('',#466);
#142=VERTEX_POINT('',#468);
#143=VERTEX_POINT('',#472);
#144=VERTEX_POINT('',#474);
#145=VERTEX_POINT('',#478);
#146=VERTEX_POINT('',#480);
#147=EDGE_CURVE('',#123,#123,#107,.T.);
#148=EDGE_CURVE('',#123,#124,#67,.T.);
#149=EDGE_CURVE('',#124,#124,#108,.T.);
#150=EDGE_CURVE('',#125,#125,#109,.T.);
#151=EDGE_CURVE('',#126,#126,#110,.T.);
#152=EDGE_CURVE('',#126,#127,#68,.T.);
#153=EDGE_CURVE('',#127,#127,#111,.T.);
#154=EDGE_CURVE('',#128,#128,#112,.T.);
#155=EDGE_CURVE('',#128,#129,#69,.T.);
#156=EDGE_CURVE('',#129,#129,#113,.T.);
#157=EDGE_CURVE('',#125,#130,#70,.T.);
#158=EDGE_CURVE('',#130,#130,#114,.T.);
#159=EDGE_CURVE('',#131,#132,#115,.T.);
#160=EDGE_CURVE('',#132,#133,#71,.T.);
#161=EDGE_CURVE('',#134,#133,#116,.T.);
#162=EDGE_CURVE('',#131,#134,#72,.T.);
#163=EDGE_CURVE('',#135,#131,#73,.T.);
#164=EDGE_CURVE('',#136,#134,#74,.T.);
#165=EDGE_CURVE('',#135,#136,#75,.T.);
#166=EDGE_CURVE('',#137,#135,#117,.T.);
#167=EDGE_CURVE('',#138,#136,#118,.T.);
#168=EDGE_CURVE('',#137,#138,#76,.T.);
#169=EDGE_CURVE('',#139,#137,#77,.T.);
#170=EDGE_CURVE('',#140,#138,#78,.T.);
#171=EDGE_CURVE('',#139,#140,#79,.T.);
#172=EDGE_CURVE('',#141,#139,#119,.T.);
#173=EDGE_CURVE('',#142,#140,#120,.T.);
#174=EDGE_CURVE('',#141,#142,#80,.T.);
#175=EDGE_CURVE('',#143,#141,#81,.T.);
#176=EDGE_CURVE('',#144,#142,#82,.T.);
#177=EDGE_CURVE('',#143,#144,#83,.T.);
#178=EDGE_CURVE('',#145,#143,#121,.T.);
#179=EDGE_CURVE('',#146,#144,#122,.T.);
#180=EDGE_CURVE('',#145,#146,#84,.T.);
#181=EDGE_CURVE('',#132,#145,#85,.T.);
#182=EDGE_CURVE('',#133,#146,#86,.T.);
#183=ORIENTED_EDGE('',*,*,#147,.F.);
#184=ORIENTED_EDGE('',*,*,#148,.T.);
#185=ORIENTED_EDGE('',*,*,#149,.T.);
#186=ORIENTED_EDGE('',*,*,#148,.F.);
#187=ORIENTED_EDGE('',*,*,#149,.F.);
#188=ORIENTED_EDGE('',*,*,#150,.F.);
#189=ORIENTED_EDGE('',*,*,#151,.F.);
#190=ORIENTED_EDGE('',*,*,#152,.T.);
#191=ORIENTED_EDGE('',*,*,#153,.T.);
#192=ORIENTED_EDGE('',*,*,#152,.F.);
#193=ORIENTED_EDGE('',*,*,#153,.F.);
#194=ORIENTED_EDGE('',*,*,#154,.F.);
#195=ORIENTED_EDGE('',*,*,#154,.T.);
#196=ORIENTED_EDGE('',*,*,#155,.T.);
#197=ORIENTED_EDGE('',*,*,#156,.T.);
#198=ORIENTED_EDGE('',*,*,#155,.F.);
#199=ORIENTED_EDGE('',*,*,#150,.T.);
#200=ORIENTED_EDGE('',*,*,#157,.T.);
#201=ORIENTED_EDGE('',*,*,#158,.T.);
#202=ORIENTED_EDGE('',*,*,#157,.F.);
#203=ORIENTED_EDGE('',*,*,#159,.T.);
#204=ORIENTED_EDGE('',*,*,#160,.T.);
#205=ORIENTED_EDGE('',*,*,#161,.F.);
#206=ORIENTED_EDGE('',*,*,#162,.F.);
#207=ORIENTED_EDGE('',*,*,#163,.T.);
#208=ORIENTED_EDGE('',*,*,#162,.T.);
#209=ORIENTED_EDGE('',*,*,#164,.F.);
#210=ORIENTED_EDGE('',*,*,#165,.F.);
#211=ORIENTED_EDGE('',*,*,#166,.T.);
#212=ORIENTED_EDGE('',*,*,#165,.T.);
#213=ORIENTED_EDGE('',*,*,#167,.F.);
#214=ORIENTED_EDGE('',*,*,#168,.F.);
#215=ORIENTED_EDGE('',*,*,#169,.T.);
#216=ORIENTED_EDGE('',*,*,#168,.T.);
#217=ORIENTED_EDGE('',*,*,#170,.F.);
#218=ORIENTED_EDGE('',*,*,#171,.F.);
#219=ORIENTED_EDGE('',*,*,#172,.T.);
#220=ORIENTED_EDGE('',*,*,#171,.T.);
#221=ORIENTED_EDGE('',*,*,#173,.F.);
#222=ORIENTED_EDGE('',*,*,#174,.F.);
#223=ORIENTED_EDGE('',*,*,#175,.T.);
#224=ORIENTED_EDGE('',*,*,#174,.T.);
#225=ORIENTED_EDGE('',*,*,#176,.F.);
#226=ORIENTED_EDGE('',*,*,#177,.F.);
#227=ORIENTED_EDGE('',*,*,#178,.T.);
#228=ORIENTED_EDGE('',*,*,#177,.T.);
#229=ORIENTED_EDGE('',*,*,#179,.F.);
#230=ORIENTED_EDGE('',*,*,#180,.F.);
#231=ORIENTED_EDGE('',*,*,#181,.T.);
#232=ORIENTED_EDGE('',*,*,#180,.T.);
#233=ORIENTED_EDGE('',*,*,#182,.F.);
#234=ORIENTED_EDGE('',*,*,#160,.F.);
#235=ORIENTED_EDGE('',*,*,#182,.T.);
#236=ORIENTED_EDGE('',*,*,#179,.T.);
#237=ORIENTED_EDGE('',*,*,#176,.T.);
#238=ORIENTED_EDGE('',*,*,#173,.T.);
#239=ORIENTED_EDGE('',*,*,#170,.T.);
#240=ORIENTED_EDGE('',*,*,#167,.T.);
#241=ORIENTED_EDGE('',*,*,#164,.T.);
#242=ORIENTED_EDGE('',*,*,#161,.T.);
#243=ORIENTED_EDGE('',*,*,#147,.T.);
#244=ORIENTED_EDGE('',*,*,#151,.T.);
#245=ORIENTED_EDGE('',*,*,#181,.F.);
#246=ORIENTED_EDGE('',*,*,#159,.F.);
#247=ORIENTED_EDGE('',*,*,#163,.F.);
#248=ORIENTED_EDGE('',*,*,#166,.F.);
#249=ORIENTED_EDGE('',*,*,#169,.F.);
#250=ORIENTED_EDGE('',*,*,#172,.F.);
#251=ORIENTED_EDGE('',*,*,#175,.F.);
#252=ORIENTED_EDGE('',*,*,#178,.F.);
#253=ORIENTED_EDGE('',*,*,#158,.F.);
#254=ORIENTED_EDGE('',*,*,#156,.F.);
#255=CYLINDRICAL_SURFACE('',#293,3.);
#256=CYLINDRICAL_SURFACE('',#298,3.);
#257=CYLINDRICAL_SURFACE('',#303,1.35);
#258=CYLINDRICAL_SURFACE('',#305,1.35);
#259=CYLINDRICAL_SURFACE('',#307,3.475);
#260=CYLINDRICAL_SURFACE('',#311,3.47500000000001);
#261=CYLINDRICAL_SURFACE('',#315,3.475);
#262=CYLINDRICAL_SURFACE('',#319,3.47500000000001);
#263=ADVANCED_FACE('',(#29),#255,.F.);
#264=ADVANCED_FACE('',(#30,#15),#21,.T.);
#265=ADVANCED_FACE('',(#31),#256,.F.);
#266=ADVANCED_FACE('',(#32,#16),#22,.T.);
#267=ADVANCED_FACE('',(#33),#257,.F.);
#268=ADVANCED_FACE('',(#34),#258,.F.);
#269=ADVANCED_FACE('',(#35),#259,.T.);
#270=ADVANCED_FACE('',(#36),#23,.T.);
#271=ADVANCED_FACE('',(#37),#260,.T.);
#272=ADVANCED_FACE('',(#38),#24,.T.);
#273=ADVANCED_FACE('',(#39),#261,.T.);
#274=ADVANCED_FACE('',(#40),#25,.T.);
#275=ADVANCED_FACE('',(#41),#262,.T.);
#276=ADVANCED_FACE('',(#42),#26,.T.);
#277=ADVANCED_FACE('',(#43,#17,#18),#27,.T.);
#278=ADVANCED_FACE('',(#44,#19,#20),#28,.F.);
#279=CLOSED_SHELL('',(#263,#264,#265,#266,#267,#268,#269,#270,#271,#272,
#273,#274,#275,#276,#277,#278));
#280=DERIVED_UNIT_ELEMENT(#282,1.);
#281=DERIVED_UNIT_ELEMENT(#493,-3.);
#282=(
MASS_UNIT()
NAMED_UNIT(*)
SI_UNIT(.KILO.,.GRAM.)
);
#283=DERIVED_UNIT((#280,#281));
#284=MEASURE_REPRESENTATION_ITEM('density measure',
POSITIVE_RATIO_MEASURE(7850.),#283);
#285=PROPERTY_DEFINITION_REPRESENTATION(#290,#287);
#286=PROPERTY_DEFINITION_REPRESENTATION(#291,#288);
#287=REPRESENTATION('material name',(#289),#490);
#288=REPRESENTATION('density',(#284),#490);
#289=DESCRIPTIVE_REPRESENTATION_ITEM('Steel','Steel');
#290=PROPERTY_DEFINITION('material property','material name',#500);
#291=PROPERTY_DEFINITION('material property','density of part',#500);
#292=AXIS2_PLACEMENT_3D('',#411,#325,#326);
#293=AXIS2_PLACEMENT_3D('',#412,#327,#328);
#294=AXIS2_PLACEMENT_3D('',#414,#329,#330);
#295=AXIS2_PLACEMENT_3D('',#417,#332,#333);
#296=AXIS2_PLACEMENT_3D('',#418,#334,#335);
#297=AXIS2_PLACEMENT_3D('',#420,#336,#337);
#298=AXIS2_PLACEMENT_3D('',#421,#338,#339);
#299=AXIS2_PLACEMENT_3D('',#423,#340,#341);
#300=AXIS2_PLACEMENT_3D('',#426,#343,#344);
#301=AXIS2_PLACEMENT_3D('',#427,#345,#346);
#302=AXIS2_PLACEMENT_3D('',#429,#347,#348);
#303=AXIS2_PLACEMENT_3D('',#430,#349,#350);
#304=AXIS2_PLACEMENT_3D('',#433,#352,#353);
#305=AXIS2_PLACEMENT_3D('',#434,#354,#355);
#306=AXIS2_PLACEMENT_3D('',#437,#357,#358);
#307=AXIS2_PLACEMENT_3D('',#438,#359,#360);
#308=AXIS2_PLACEMENT_3D('',#441,#361,#362);
#309=AXIS2_PLACEMENT_3D('',#445,#364,#365);
#310=AXIS2_PLACEMENT_3D('',#447,#367,#368);
#311=AXIS2_PLACEMENT_3D('',#453,#372,#373);
#312=AXIS2_PLACEMENT_3D('',#455,#374,#375);
#313=AXIS2_PLACEMENT_3D('',#457,#376,#377);
#314=AXIS2_PLACEMENT_3D('',#459,#379,#380);
#315=AXIS2_PLACEMENT_3D('',#465,#384,#385);
#316=AXIS2_PLACEMENT_3D('',#467,#386,#387);
#317=AXIS2_PLACEMENT_3D('',#469,#388,#389);
#318=AXIS2_PLACEMENT_3D('',#471,#391,#392);
#319=AXIS2_PLACEMENT_3D('',#477,#396,#397);
#320=AXIS2_PLACEMENT_3D('',#479,#398,#399);
#321=AXIS2_PLACEMENT_3D('',#481,#400,#401);
#322=AXIS2_PLACEMENT_3D('',#483,#403,#404);
#323=AXIS2_PLACEMENT_3D('',#486,#407,#408);
#324=AXIS2_PLACEMENT_3D('',#487,#409,#410);
#325=DIRECTION('axis',(0.,0.,1.));
#326=DIRECTION('refdir',(1.,0.,0.));
#327=DIRECTION('center_axis',(0.,-1.,0.));
#328=DIRECTION('ref_axis',(-1.,0.,0.));
#329=DIRECTION('center_axis',(0.,-1.,0.));
#330=DIRECTION('ref_axis',(-1.,0.,0.));
#331=DIRECTION('',(0.,-1.,0.));
#332=DIRECTION('center_axis',(0.,-1.,0.));
#333=DIRECTION('ref_axis',(-1.,0.,0.));
#334=DIRECTION('center_axis',(0.,1.,0.));
#335=DIRECTION('ref_axis',(-1.,0.,0.));
#336=DIRECTION('center_axis',(0.,1.,0.));
#337=DIRECTION('ref_axis',(-1.,0.,0.));
#338=DIRECTION('center_axis',(0.,-1.,0.));
#339=DIRECTION('ref_axis',(-1.,0.,0.));
#340=DIRECTION('center_axis',(0.,-1.,0.));
#341=DIRECTION('ref_axis',(-1.,0.,0.));
#342=DIRECTION('',(0.,-1.,0.));
#343=DIRECTION('center_axis',(0.,-1.,0.));
#344=DIRECTION('ref_axis',(-1.,0.,0.));
#345=DIRECTION('center_axis',(0.,1.,0.));
#346=DIRECTION('ref_axis',(-1.,0.,0.));
#347=DIRECTION('center_axis',(0.,1.,0.));
#348=DIRECTION('ref_axis',(-1.,0.,0.));
#349=DIRECTION('center_axis',(0.,1.,0.));
#350=DIRECTION('ref_axis',(-1.,0.,0.));
#351=DIRECTION('',(0.,-1.,0.));
#352=DIRECTION('center_axis',(0.,-1.,0.));
#353=DIRECTION('ref_axis',(-1.,0.,0.));
#354=DIRECTION('center_axis',(0.,1.,0.));
#355=DIRECTION('ref_axis',(-1.,0.,0.));
#356=DIRECTION('',(0.,-1.,0.));
#357=DIRECTION('center_axis',(0.,-1.,0.));
#358=DIRECTION('ref_axis',(-1.,0.,0.));
#359=DIRECTION('center_axis',(0.,1.,0.));
#360=DIRECTION('ref_axis',(2.55590912143921E-15,0.,1.));
#361=DIRECTION('center_axis',(0.,1.,0.));
#362=DIRECTION('ref_axis',(2.55590912143921E-15,0.,1.));
#363=DIRECTION('',(0.,1.,0.));
#364=DIRECTION('center_axis',(0.,1.,0.));
#365=DIRECTION('ref_axis',(2.55590912143921E-15,0.,1.));
#366=DIRECTION('',(0.,1.,0.));
#367=DIRECTION('center_axis',(0.,0.,1.));
#368=DIRECTION('ref_axis',(1.,0.,0.));
#369=DIRECTION('',(1.,0.,0.));
#370=DIRECTION('',(1.,0.,0.));
#371=DIRECTION('',(0.,1.,0.));
#372=DIRECTION('center_axis',(0.,1.,0.));
#373=DIRECTION('ref_axis',(-1.,0.,0.));
#374=DIRECTION('center_axis',(0.,1.,0.));
#375=DIRECTION('ref_axis',(-1.,0.,0.));
#376=DIRECTION('center_axis',(0.,1.,0.));
#377=DIRECTION('ref_axis',(-1.,0.,0.));
#378=DIRECTION('',(0.,1.,0.));
#379=DIRECTION('center_axis',(-1.,0.,0.));
#380=DIRECTION('ref_axis',(0.,0.,1.));
#381=DIRECTION('',(0.,0.,1.));
#382=DIRECTION('',(0.,0.,1.));
#383=DIRECTION('',(0.,1.,0.));
#384=DIRECTION('center_axis',(0.,1.,0.));
#385=DIRECTION('ref_axis',(0.,0.,-1.));
#386=DIRECTION('center_axis',(0.,1.,0.));
#387=DIRECTION('ref_axis',(0.,0.,-1.));
#388=DIRECTION('center_axis',(0.,1.,0.));
#389=DIRECTION('ref_axis',(0.,0.,-1.));
#390=DIRECTION('',(0.,1.,0.));
#391=DIRECTION('center_axis',(-3.14288188145833E-17,0.,-1.));
#392=DIRECTION('ref_axis',(-1.,0.,3.14288188145833E-17));
#393=DIRECTION('',(-1.,0.,3.14288188145833E-17));
#394=DIRECTION('',(-1.,0.,3.14288188145833E-17));
#395=DIRECTION('',(0.,1.,0.));
#396=DIRECTION('center_axis',(0.,1.,0.));
#397=DIRECTION('ref_axis',(1.,0.,-2.5559091214392E-15));
#398=DIRECTION('center_axis',(0.,1.,0.));
#399=DIRECTION('ref_axis',(1.,0.,-2.5559091214392E-15));
#400=DIRECTION('center_axis',(0.,1.,0.));
#401=DIRECTION('ref_axis',(1.,0.,-2.5559091214392E-15));
#402=DIRECTION('',(0.,1.,0.));
#403=DIRECTION('center_axis',(1.,0.,0.));
#404=DIRECTION('ref_axis',(0.,0.,-1.));
#405=DIRECTION('',(0.,0.,-1.));
#406=DIRECTION('',(0.,0.,-1.));
#407=DIRECTION('center_axis',(0.,1.,0.));
#408=DIRECTION('ref_axis',(-1.,0.,0.));
#409=DIRECTION('center_axis',(0.,1.,0.));
#410=DIRECTION('ref_axis',(-1.,0.,0.));
#411=CARTESIAN_POINT('',(0.,0.,0.));
#412=CARTESIAN_POINT('Origin',(-26.525,15.5,22.325));
#413=CARTESIAN_POINT('',(-23.525,15.5,22.325));
#414=CARTESIAN_POINT('Origin',(-26.525,15.5,22.325));
#415=CARTESIAN_POINT('',(-23.525,12.5,22.325));
#416=CARTESIAN_POINT('',(-23.525,15.5,22.325));
#417=CARTESIAN_POINT('Origin',(-26.525,12.5,22.325));
#418=CARTESIAN_POINT('Origin',(-26.525,12.5,22.325));
#419=CARTESIAN_POINT('',(-25.175,12.5,22.325));
#420=CARTESIAN_POINT('Origin',(-26.525,12.5,22.325));
#421=CARTESIAN_POINT('Origin',(44.125,15.5,22.325));
#422=CARTESIAN_POINT('',(47.125,15.5,22.325));
#423=CARTESIAN_POINT('Origin',(44.125,15.5,22.325));
#424=CARTESIAN_POINT('',(47.125,12.5,22.325));
#425=CARTESIAN_POINT('',(47.125,15.5,22.325));
#426=CARTESIAN_POINT('Origin',(44.125,12.5,22.325));
#427=CARTESIAN_POINT('Origin',(44.125,12.5,22.325));
#428=CARTESIAN_POINT('',(45.475,12.5,22.325));
#429=CARTESIAN_POINT('Origin',(44.125,12.5,22.325));
#430=CARTESIAN_POINT('Origin',(44.125,11.5,22.325));
#431=CARTESIAN_POINT('',(45.475,11.5,22.325));
#432=CARTESIAN_POINT('',(45.475,11.5,22.325));
#433=CARTESIAN_POINT('Origin',(44.125,11.5,22.325));
#434=CARTESIAN_POINT('Origin',(-26.525,11.5,22.325));
#435=CARTESIAN_POINT('',(-25.175,11.5,22.325));
#436=CARTESIAN_POINT('',(-25.175,11.5,22.325));
#437=CARTESIAN_POINT('Origin',(-26.525,11.5,22.325));
#438=CARTESIAN_POINT('Origin',(44.125,11.5,22.325));
#439=CARTESIAN_POINT('',(44.125,11.5,25.8));
#440=CARTESIAN_POINT('',(47.6,11.5,22.325));
#441=CARTESIAN_POINT('Origin',(44.125,11.5,22.325));
#442=CARTESIAN_POINT('',(47.6,15.5,22.325));
#443=CARTESIAN_POINT('',(47.6,11.5,22.325));
#444=CARTESIAN_POINT('',(44.125,15.5,25.8));
#445=CARTESIAN_POINT('Origin',(44.125,15.5,22.325));
#446=CARTESIAN_POINT('',(44.125,11.5,25.8));
#447=CARTESIAN_POINT('Origin',(-26.525,11.5,25.8));
#448=CARTESIAN_POINT('',(-26.525,11.5,25.8));
#449=CARTESIAN_POINT('',(-26.525,11.5,25.8));
#450=CARTESIAN_POINT('',(-26.525,15.5,25.8));
#451=CARTESIAN_POINT('',(-26.525,15.5,25.8));
#452=CARTESIAN_POINT('',(-26.525,11.5,25.8));
#453=CARTESIAN_POINT('Origin',(-26.525,11.5,22.325));
#454=CARTESIAN_POINT('',(-30.,11.5,22.325));
#455=CARTESIAN_POINT('Origin',(-26.525,11.5,22.325));
#456=CARTESIAN_POINT('',(-30.,15.5,22.325));
#457=CARTESIAN_POINT('Origin',(-26.525,15.5,22.325));
#458=CARTESIAN_POINT('',(-30.,11.5,22.325));
#459=CARTESIAN_POINT('Origin',(-30.,11.5,-12.025));
#460=CARTESIAN_POINT('',(-30.,11.5,-12.025));
#461=CARTESIAN_POINT('',(-30.,11.5,-12.025));
#462=CARTESIAN_POINT('',(-30.,15.5,-12.025));
#463=CARTESIAN_POINT('',(-30.,15.5,-12.025));
#464=CARTESIAN_POINT('',(-30.,11.5,-12.025));
#465=CARTESIAN_POINT('Origin',(-26.525,11.5,-12.025));
#466=CARTESIAN_POINT('',(-26.525,11.5,-15.5));
#467=CARTESIAN_POINT('Origin',(-26.525,11.5,-12.025));
#468=CARTESIAN_POINT('',(-26.525,15.5,-15.5));
#469=CARTESIAN_POINT('Origin',(-26.525,15.5,-12.025));
#470=CARTESIAN_POINT('',(-26.525,11.5,-15.5));
#471=CARTESIAN_POINT('Origin',(44.125,11.5,-15.5));
#472=CARTESIAN_POINT('',(44.125,11.5,-15.5));
#473=CARTESIAN_POINT('',(44.125,11.5,-15.5));
#474=CARTESIAN_POINT('',(44.125,15.5,-15.5));
#475=CARTESIAN_POINT('',(44.125,15.5,-15.5));
#476=CARTESIAN_POINT('',(44.125,11.5,-15.5));
#477=CARTESIAN_POINT('Origin',(44.125,11.5,-12.025));
#478=CARTESIAN_POINT('',(47.6,11.5,-12.025));
#479=CARTESIAN_POINT('Origin',(44.125,11.5,-12.025));
#480=CARTESIAN_POINT('',(47.6,15.5,-12.025));
#481=CARTESIAN_POINT('Origin',(44.125,15.5,-12.025));
#482=CARTESIAN_POINT('',(47.6,11.5,-12.025));
#483=CARTESIAN_POINT('Origin',(47.6,11.5,22.325));
#484=CARTESIAN_POINT('',(47.6,11.5,10.));
#485=CARTESIAN_POINT('',(47.6,15.5,10.));
#486=CARTESIAN_POINT('Origin',(8.8,15.5,5.15));
#487=CARTESIAN_POINT('Origin',(8.8,11.5,5.15));
#488=UNCERTAINTY_MEASURE_WITH_UNIT(LENGTH_MEASURE(0.01),#492,
'DISTANCE_ACCURACY_VALUE',
'Maximum model space distance between geometric entities at asserted c
onnectivities');
#489=UNCERTAINTY_MEASURE_WITH_UNIT(LENGTH_MEASURE(0.01),#492,
'DISTANCE_ACCURACY_VALUE',
'Maximum model space distance between geometric entities at asserted c
onnectivities');
#490=(
GEOMETRIC_REPRESENTATION_CONTEXT(3)
GLOBAL_UNCERTAINTY_ASSIGNED_CONTEXT((#488))
GLOBAL_UNIT_ASSIGNED_CONTEXT((#492,#494,#495))
REPRESENTATION_CONTEXT('','3D')
);
#491=(
GEOMETRIC_REPRESENTATION_CONTEXT(3)
GLOBAL_UNCERTAINTY_ASSIGNED_CONTEXT((#489))
GLOBAL_UNIT_ASSIGNED_CONTEXT((#492,#494,#495))
REPRESENTATION_CONTEXT('','3D')
);
#492=(
LENGTH_UNIT()
NAMED_UNIT(*)
SI_UNIT(.MILLI.,.METRE.)
);
#493=(
LENGTH_UNIT()
NAMED_UNIT(*)
SI_UNIT($,.METRE.)
);
#494=(
NAMED_UNIT(*)
PLANE_ANGLE_UNIT()
SI_UNIT($,.RADIAN.)
);
#495=(
NAMED_UNIT(*)
SI_UNIT($,.STERADIAN.)
SOLID_ANGLE_UNIT()
);
#496=SHAPE_DEFINITION_REPRESENTATION(#497,#498);
#497=PRODUCT_DEFINITION_SHAPE('',$,#500);
#498=SHAPE_REPRESENTATION('',(#292),#490);
#499=PRODUCT_DEFINITION_CONTEXT('part definition',#504,'design');
#500=PRODUCT_DEFINITION('2026-08-24-18-19-28-915','YouTube Controller',
#501,#499);
#501=PRODUCT_DEFINITION_FORMATION('',$,#506);
#502=PRODUCT_RELATED_PRODUCT_CATEGORY('YouTube Controller',
'YouTube Controller',(#506));
#503=APPLICATION_PROTOCOL_DEFINITION('international standard',
'automotive_design',2009,#504);
#504=APPLICATION_CONTEXT(
'Core Data for Automotive Mechanical Design Process');
#505=PRODUCT_CONTEXT('part definition',#504,'mechanical');
#506=PRODUCT('2026-08-24-18-19-28-915','YouTube Controller',$,(#505));
#507=PRESENTATION_STYLE_ASSIGNMENT((#519));
#508=PRESENTATION_STYLE_ASSIGNMENT((#520));
#509=PRESENTATION_STYLE_ASSIGNMENT((#521));
#510=PRESENTATION_STYLE_ASSIGNMENT((#522));
#511=PRESENTATION_STYLE_ASSIGNMENT((#523));
#512=PRESENTATION_STYLE_ASSIGNMENT((#524));
#513=PRESENTATION_STYLE_ASSIGNMENT((#525));
#514=PRESENTATION_STYLE_ASSIGNMENT((#526));
#515=PRESENTATION_STYLE_ASSIGNMENT((#527));
#516=PRESENTATION_STYLE_ASSIGNMENT((#528));
#517=PRESENTATION_STYLE_ASSIGNMENT((#529));
#518=PRESENTATION_STYLE_ASSIGNMENT((#530));
#519=SURFACE_STYLE_USAGE(.BOTH.,#531);
#520=SURFACE_STYLE_USAGE(.BOTH.,#532);
#521=SURFACE_STYLE_USAGE(.BOTH.,#533);
#522=SURFACE_STYLE_USAGE(.BOTH.,#534);
#523=SURFACE_STYLE_USAGE(.BOTH.,#535);
#524=SURFACE_STYLE_USAGE(.BOTH.,#536);
#525=SURFACE_STYLE_USAGE(.BOTH.,#537);
#526=SURFACE_STYLE_USAGE(.BOTH.,#538);
#527=SURFACE_STYLE_USAGE(.BOTH.,#539);
#528=SURFACE_STYLE_USAGE(.BOTH.,#540);
#529=SURFACE_STYLE_USAGE(.BOTH.,#541);
#530=SURFACE_STYLE_USAGE(.BOTH.,#542);
#531=SURFACE_SIDE_STYLE('',(#543));
#532=SURFACE_SIDE_STYLE('',(#544));
#533=SURFACE_SIDE_STYLE('',(#545));
#534=SURFACE_SIDE_STYLE('',(#546));
#535=SURFACE_SIDE_STYLE('',(#547));
#536=SURFACE_SIDE_STYLE('',(#548));
#537=SURFACE_SIDE_STYLE('',(#549));
#538=SURFACE_SIDE_STYLE('',(#550));
#539=SURFACE_SIDE_STYLE('',(#551));
#540=SURFACE_SIDE_STYLE('',(#552));
#541=SURFACE_SIDE_STYLE('',(#553));
#542=SURFACE_SIDE_STYLE('',(#554));
#543=SURFACE_STYLE_FILL_AREA(#555);
#544=SURFACE_STYLE_FILL_AREA(#556);
#545=SURFACE_STYLE_FILL_AREA(#557);
#546=SURFACE_STYLE_FILL_AREA(#558);
#547=SURFACE_STYLE_FILL_AREA(#559);
#548=SURFACE_STYLE_FILL_AREA(#560);
#549=SURFACE_STYLE_FILL_AREA(#561);
#550=SURFACE_STYLE_FILL_AREA(#562);
#551=SURFACE_STYLE_FILL_AREA(#563);
#552=SURFACE_STYLE_FILL_AREA(#564);
#553=SURFACE_STYLE_FILL_AREA(#565);
#554=SURFACE_STYLE_FILL_AREA(#566);
#555=FILL_AREA_STYLE('Steel - Satin',(#567));
#556=FILL_AREA_STYLE('Paint - Enamel Glossy (Black)',(#568));
#557=FILL_AREA_STYLE('Gold - Polished',(#569));
#558=FILL_AREA_STYLE('Paint - Enamel Glossy (White)',(#570));
#559=FILL_AREA_STYLE('Opaque(247,224,153)',(#571));
#560=FILL_AREA_STYLE('ABS (White)',(#572));
#561=FILL_AREA_STYLE('Opaque(219,188,126)',(#573));
#562=FILL_AREA_STYLE('Opaque(25,25,25)',(#574));
#563=FILL_AREA_STYLE('Opaque(136,60,0)',(#575));
#564=FILL_AREA_STYLE('Opaque(255,255,255)',(#576));
#565=FILL_AREA_STYLE('ABS (White)',(#577));
#566=FILL_AREA_STYLE('ABS (White)',(#578));
#567=FILL_AREA_STYLE_COLOUR('Steel - Satin',#579);
#568=FILL_AREA_STYLE_COLOUR('Paint - Enamel Glossy (Black)',#580);
#569=FILL_AREA_STYLE_COLOUR('Gold - Polished',#581);
#570=FILL_AREA_STYLE_COLOUR('Paint - Enamel Glossy (White)',#582);
#571=FILL_AREA_STYLE_COLOUR('Opaque(247,224,153)',#583);
#572=FILL_AREA_STYLE_COLOUR('ABS (White)',#584);
#573=FILL_AREA_STYLE_COLOUR('Opaque(219,188,126)',#585);
#574=FILL_AREA_STYLE_COLOUR('Opaque(25,25,25)',#586);
#575=FILL_AREA_STYLE_COLOUR('Opaque(136,60,0)',#587);
#576=FILL_AREA_STYLE_COLOUR('Opaque(255,255,255)',#588);
#577=FILL_AREA_STYLE_COLOUR('ABS (White)',#589);
#578=FILL_AREA_STYLE_COLOUR('ABS (White)',#590);
#579=COLOUR_RGB('Steel - Satin',0.627450980392157,0.627450980392157,0.627450980392157);
#580=COLOUR_RGB('Paint - Enamel Glossy (Black)',0.0980392156862745,0.0980392156862745,
0.0980392156862745);
#581=COLOUR_RGB('Gold - Polished',0.956862745098039,0.898039215686275,0.654901960784314);
#582=COLOUR_RGB('Paint - Enamel Glossy (White)',0.964705882352941,0.964705882352941,
0.952941176470588);
#583=COLOUR_RGB('Opaque(247,224,153)',0.968627450980392,0.87843137254902,
0.6);
#584=COLOUR_RGB('ABS (White)',0.796078431372549,0.443137254901961,0.172549019607843);
#585=COLOUR_RGB('Opaque(219,188,126)',0.858823529411765,0.737254901960784,
0.494117647058824);
#586=COLOUR_RGB('Opaque(25,25,25)',0.0980392156862745,0.0980392156862745,
0.0980392156862745);
#587=COLOUR_RGB('Opaque(136,60,0)',0.533333333333333,0.235294117647059,
0.);
#588=COLOUR_RGB('Opaque(255,255,255)',1.,1.,1.);
#589=COLOUR_RGB('ABS (White)',0.823529411764706,0.823529411764706,0.823529411764706);
#590=COLOUR_RGB('ABS (White)',0.76078431372549,0.564705882352941,0.2);
ENDSEC;
END-ISO-10303-21;
